<?xml version="1.0" encoding="UTF-8" standalone="no"?>
<!DOCTYPE svg PUBLIC "-//W3C//DTD SVG 1.1//EN" "http://www.w3.org/Graphics/SVG/1.1/DTD/svg11.dtd">
<svg width="100%" height="100%" viewBox="0 0 320 320" version="1.1" xmlns="http://www.w3.org/2000/svg" xmlns:xlink="http://www.w3.org/1999/xlink" xml:space="preserve" xmlns:serif="http://www.serif.com/" style="fill-rule:evenodd;clip-rule:evenodd;stroke-linecap:round;stroke-linejoin:round;stroke-miterlimit:1.5;">
    <g transform="matrix(1,0,0,1,-0.404626,-1.51181)">
        <g transform="matrix(1.49225,0,0,1.49225,-25.6165,-56.3312)">
            <path d="M29.773,57.263C29.773,57.263 114.705,46.307 103.872,97.467C97.349,128.277 76.088,177.465 81.818,202.79C87.515,227.968 110.201,235.713 110.201,235.713C110.201,235.713 20.95,242.362 22.182,183.62C22.735,157.284 38.789,124.162 45.597,94.891C53.645,60.29 29.773,57.263 29.773,57.263Z" style="stroke:black;stroke-width:0.67px;"/>
        </g>
        <g transform="matrix(1.49225,0,0,1.49225,74.3008,-49.3455)">
            <path d="M20.539,51.348C20.539,51.348 110.09,45.597 103.517,98.177C99.611,129.427 74.313,179.24 80.043,204.565C85.74,229.743 101.874,230.449 101.874,230.449C101.874,230.449 20.95,242.362 22.182,183.62C22.735,157.284 38.789,124.162 45.597,94.891C53.645,60.29 20.539,51.348 20.539,51.348Z" style="stroke:black;stroke-width:0.67px;"/>
        </g>
        <g transform="matrix(-0.657884,0,0,1.46179,326.856,-45.6622)">
            <path d="M20.539,51.348C20.539,51.348 121.042,50.531 114.469,103.112C110.563,134.361 51.764,177.047 57.495,202.372C63.192,227.55 131.509,231.272 131.509,231.272C131.509,231.272 20.95,242.362 22.182,183.62C22.735,157.284 65.846,130.193 72.655,100.922C80.703,66.321 20.539,51.348 20.539,51.348Z" style="stroke:black;stroke-width:0.88px;"/>
        </g>
    </g>
</svg>
